[Header]
FileType HTR
DataType HTRS
FileVersion 1
NumSegments 64
NumFrames 4
DataFrameRate 30
EulerRotationOrder ZYX
CalibrationUnits mm
RotationUnits Degrees
GlobalAxisofGravity Y
BoneLengthAxis Y
ScaleFactor 1.0
[SegmentNames&Hierarchy]
Hips	GLOBAL
Spine	Hips
Spine1	Spine
Spine2	Spine1
Neck	Spine2
Head	Neck
LeftEye	Head
RightEye	Head
LeftShoulder	Spine2
LeftArm	LeftShoulder
LeftForeArm	LeftArm
LeftHand	LeftForeArm
LeftHandThumb1	LeftHand
LeftHandThumb2	LeftHandThumb1
LeftHandThumb3	LeftHandThumb2
LeftHandThumb4	LeftHandThumb3
LeftHandIndex1	LeftHand
LeftHandIndex2	LeftHandIndex1
LeftHandIndex3	LeftHandIndex2
LeftHandIndex4	LeftHandIndex3
LeftHandMiddle1	LeftHand
LeftHandMiddle2	LeftHandMiddle1
LeftHandMiddle3	LeftHandMiddle2
LeftHandMiddle4	LeftHandMiddle3
LeftHandRing1	LeftHand
LeftHandRing2	LeftHandRing1
LeftHandRing3	LeftHandRing2
LeftHandRing4	LeftHandRing3
LeftHandPinky1	LeftHand
LeftHandPinky2	LeftHandPinky1
LeftHandPinky3	LeftHandPinky2
LeftHandPinky4	LeftHandPinky3
RightShoulder	Spine2
RightArm	RightShoulder
RightForeArm	RightArm
RightHand	RightForeArm
RightHandPinky1	RightHand
RightHandPinky2	RightHandPinky1
RightHandPinky3	RightHandPinky2
RightHandPinky4	RightHandPinky3
RightHandRing1	RightHand
RightHandRing2	RightHandRing1
RightHandRing3	RightHandRing2
RightHandRing4	RightHandRing3
RightHandMiddle1	RightHand
RightHandMiddle2	RightHandMiddle1
RightHandMiddle3	RightHandMiddle2
RightHandMiddle4	RightHandMiddle3
RightHandIndex1	RightHand
RightHandIndex2	RightHandIndex1
RightHandIndex3	RightHandIndex2
RightHandIndex4	RightHandIndex3
RightHandThumb1	RightHand
RightHandThumb2	RightHandThumb1
RightHandThumb3	RightHandThumb2
RightHandThumb4	RightHandThumb3
LeftUpLeg	Hips
LeftLeg	LeftUpLeg
LeftFoot	LeftLeg
LeftToeBase	LeftFoot
RightUpLeg	Hips
RightLeg	RightUpLeg
RightFoot	RightLeg
RightToeBase	RightFoot
[BasePosition]
Hips	0	0	0	0	0	0	1
Spine	0	0	0	0	0	0	1
Spine1	0	0	0	0	0	0	1
Spine2	0	0	0	0	0	0	1
Neck	0	0	0	0	0	0	1
Head	0	0	0	0	0	0	1
LeftEye	0	0	0	0	0	0	1
RightEye	0	0	0	0	0	0	1
LeftShoulder	0	0	0	0	0	0	1
LeftArm	0	0	0	0	0	0	1
LeftForeArm	0	0	0	0	0	0	1
LeftHand	0	0	0	0	0	0	1
LeftHandThumb1	0	0	0	0	0	0	1
LeftHandThumb2	0	0	0	0	0	0	1
LeftHandThumb3	0	0	0	0	0	0	1
LeftHandThumb4	0	0	0	0	0	0	1
LeftHandIndex1	0	0	0	0	0	0	1
LeftHandIndex2	0	0	0	0	0	0	1
LeftHandIndex3	0	0	0	0	0	0	1
LeftHandIndex4	0	0	0	0	0	0	1
LeftHandMiddle1	0	0	0	0	0	0	1
LeftHandMiddle2	0	0	0	0	0	0	1
LeftHandMiddle3	0	0	0	0	0	0	1
LeftHandMiddle4	0	0	0	0	0	0	1
LeftHandRing1	0	0	0	0	0	0	1
LeftHandRing2	0	0	0	0	0	0	1
LeftHandRing3	0	0	0	0	0	0	1
LeftHandRing4	0	0	0	0	0	0	1
LeftHandPinky1	0	0	0	0	0	0	1
LeftHandPinky2	0	0	0	0	0	0	1
LeftHandPinky3	0	0	0	0	0	0	1
LeftHandPinky4	0	0	0	0	0	0	1
RightShoulder	0	0	0	0	0	0	1
RightArm	0	0	0	0	0	0	1
RightForeArm	0	0	0	0	0	0	1
RightHand	0	0	0	0	0	0	1
RightHandPinky1	0	0	0	0	0	0	1
RightHandPinky2	0	0	0	0	0	0	1
RightHandPinky3	0	0	0	0	0	0	1
RightHandPinky4	0	0	0	0	0	0	1
RightHandRing1	0	0	0	0	0	0	1
RightHandRing2	0	0	0	0	0	0	1
RightHandRing3	0	0	0	0	0	0	1
RightHandRing4	0	0	0	0	0	0	1
RightHandMiddle1	0	0	0	0	0	0	1
RightHandMiddle2	0	0	0	0	0	0	1
RightHandMiddle3	0	0	0	0	0	0	1
RightHandMiddle4	0	0	0	0	0	0	1
RightHandIndex1	0	0	0	0	0	0	1
RightHandIndex2	0	0	0	0	0	0	1
RightHandIndex3	0	0	0	0	0	0	1
RightHandIndex4	0	0	0	0	0	0	1
RightHandThumb1	0	0	0	0	0	0	1
RightHandThumb2	0	0	0	0	0	0	1
RightHandThumb3	0	0	0	0	0	0	1
RightHandThumb4	0	0	0	0	0	0	1
LeftUpLeg	0	0	0	0	0	0	1
LeftLeg	0	0	0	0	0	0	1
LeftFoot	0	0	0	0	0	0	1
LeftToeBase	0	0	0	0	0	0	1
RightUpLeg	0	0	0	0	0	0	1
RightLeg	0	0	0	0	0	0	1
RightFoot	0	0	0	0	0	0	1
RightToeBase	0	0	0	0	0	0	1
[Hips]
1	-1.72073245	971.2576294	263.9894409	-60.6450882	77.679039	-53.7094841	1.0
2	-3.034872532	969.8223267	273.4250488	-60.33727646	77.6603241	-53.27978134	1.0
3	-3.612620592	968.1040039	277.1842651	-55.89400482	76.76356506	-48.79516983	1.0
4	-3.121178389	966.3934326	275.5346985	-48.89559555	74.75145721	-41.797966	1.0
[Spine]
1	0	101.8159943	1.315000057	21.53537941	7.556722641	8.903427124	1.0
2	0	101.8159943	1.315000057	21.72725487	7.472470284	10.41022205	1.0
3	0	101.8159943	1.315000057	21.87320709	7.303749561	11.30125141	1.0
4	0	101.8159943	1.315000057	21.77313614	6.814462185	11.37824249	1.0
[Spine1]
1	0	100.8349991	-10.00800037	-1.685021043	0.9192035794	3.198087692	1.0
2	0	100.8349991	-10.00800037	-1.57407999	0.8612176776	3.362919569	1.0
3	0	100.8349991	-10.00800037	-1.370767474	0.8374481797	3.407578468	1.0
4	0	100.8349991	-10.00800037	-1.065862775	0.8106994629	3.352456331	1.0
[Spine2]
1	0	91	-13.73399925	-1.711084843	1.125899434	3.661177874	1.0
2	0	91	-13.73399925	-1.6118536	1.107725978	3.929355383	1.0
3	0	91	-13.73399925	-1.407361865	1.090861082	4.002160072	1.0
4	0	91	-13.73399925	-1.094152093	1.039308786	3.939383745	1.0
[Neck]
1	0	166.7169952	-25.16200066	1.65609622	-11.81875134	-6.570433617	1.0
2	0	166.7169952	-25.16200066	2.461756706	-11.81986046	-6.660922527	1.0
3	0	166.7169952	-25.16200066	3.121973991	-11.73176098	-6.932503223	1.0
4	0	166.7169952	-25.16200066	3.37014842	-11.49956703	-7.3817029	1.0
[Head]
1	0	96.17900085	16.84999847	-14.56725311	-67.25650787	17.93375969	1.0
2	0	96.17900085	16.84999847	-12.28900242	-68.32987976	16.94298553	1.0
3	0	96.17900085	16.84999847	-9.736828804	-68.8741684	15.06329346	1.0
4	0	96.17900085	16.84999847	-7.449189186	-68.50601196	12.74524879	1.0
[LeftEye]
1	30.6760006	64.09500122	92.83599854	0	0	0	1.0
2	30.6760006	64.09500122	92.83599854	0	0	0	1.0
3	30.6760006	64.09500122	92.83599854	0	0	0	1.0
4	30.6760006	64.09500122	92.83599854	0	0	0	1.0
[RightEye]
1	-30.6760006	64.09500122	92.83499908	0	0	0	1.0
2	-30.6760006	64.09500122	92.83499908	0	0	0	1.0
3	-30.6760006	64.09500122	92.83499908	0	0	0	1.0
4	-30.6760006	64.09500122	92.83499908	0	0	0	1.0
[LeftShoulder]
1	45.70400238	109.4599991	-26.28000069	-0.05445103347	3.732403517	-1.528689861	1.0
2	45.70400238	109.4599991	-26.28000069	0.01729623601	2.955241442	0.3141951263	1.0
3	45.70400238	109.4599991	-26.28000069	0.08399903029	2.275369644	1.352401853	1.0
4	45.70400238	109.4599991	-26.28000069	0.1062714383	2.079246283	1.869652033	1.0
[LeftArm]
1	105.923996	-5.24600029	-22.32099915	-72.06118774	3.64881444	-10.12526703	1.0
2	105.923996	-5.24600029	-22.32099915	-61.29634476	5.918654442	-4.10014677	1.0
3	105.923996	-5.24600029	-22.32099915	-53.54993439	7.96651125	1.215598702	1.0
4	105.923996	-5.24600029	-22.32099915	-48.78490067	8.338398933	4.889657021	1.0
[LeftForeArm]
1	278.414978	-0.0009999999311	0	-0.0001849507826	-84.78959656	-5.857562792e-05	1.0
2	278.414978	-0.0009999999311	0	-3.942403055e-05	-77.4574585	-0.0001856470772	1.0
3	278.414978	-0.0009999999311	0	6.347356248e-06	-71.14128876	-0.0002326295362	1.0
4	278.414978	-0.0009999999311	0	1.493128093e-05	-65.32805634	-0.0002374268661	1.0
[LeftHand]
1	283.2879944	0	0	-35.92687988	-25.81820869	-0.378534168	1.0
2	283.2879944	0	0	-26.20112801	-25.56965446	-3.50255847	1.0
3	283.2879944	0	0	-23.10150909	-26.42558098	-2.63148737	1.0
4	283.2879944	0	0	-27.61810684	-27.6732502	2.923639774	1.0
[LeftHandThumb1]
1	24.6609993	-15.75	26.8239994	-9.375205994	-11.42749023	1.892966747	1.0
2	24.6609993	-15.75	26.8239994	-9.001720428	-13.89728832	-0.7383385897	1.0
3	24.6609993	-15.75	26.8239994	-8.322305679	-15.76085663	-3.286358833	1.0
4	24.6609993	-15.75	26.8239994	-7.111392021	-16.27278328	-5.391459465	1.0
[LeftHandThumb2]
1	32.29800034	-18.64699936	18.64699936	1.229339242	-0.1970249563	-1.045792103	1.0
2	32.29800034	-18.64699936	18.64699936	1.223961949	-0.194196716	-1.048419118	1.0
3	32.29800034	-18.64699936	18.64699936	1.215528131	-0.1897368133	-1.052715063	1.0
4	32.29800034	-18.64699936	18.64699936	1.210720062	-0.1864411384	-1.055116177	1.0
[LeftHandThumb3]
1	26.52600098	-15.31499958	15.31499958	-0.1787131876	2.578311443	3.141131878	1.0
2	26.52600098	-15.31499958	15.31499958	-0.9503494501	1.327223778	3.314144611	1.0
3	26.52600098	-15.31499958	15.31499958	-1.582988739	0.2911171913	3.468076229	1.0
4	26.52600098	-15.31499958	15.31499958	-1.829073548	-0.1178839579	3.518048525	1.0
[LeftHandThumb4]
1	19.54599953	-11.28499985	11.28499985	0	0	0	1.0
2	19.54599953	-11.28499985	11.28499985	0	0	0	1.0
3	19.54599953	-11.28499985	11.28499985	0	0	0	1.0
4	19.54599953	-11.28499985	11.28499985	0	0	0	1.0
[LeftHandIndex1]
1	91.09299469	-5.170999527	22.60099792	-1.886701226	-10.57992268	-45.61842346	1.0
2	91.09299469	-5.170999527	22.60099792	-2.012842417	-10.79094028	-47.10458374	1.0
3	91.09299469	-5.170999527	22.60099792	-2.064133406	-10.84731674	-47.70419693	1.0
4	91.09299469	-5.170999527	22.60099792	-1.973804474	-10.66504192	-46.6333046	1.0
[LeftHandIndex2]
1	36.76399994	0	0	-0.184766382	1.58445549	-13.30184937	1.0
2	36.76399994	0	0	-0.2085562944	1.681406498	-14.13293839	1.0
3	36.76399994	0	0	-0.2124898583	1.699351907	-14.28580666	1.0
4	36.76399994	0	0	-0.1836992353	1.57893455	-13.25529575	1.0
[LeftHandIndex3]
1	28.83100128	0	0	-0.03913895041	0.7332366705	-6.110908031	1.0
2	28.83100128	0	0	-0.03870662302	0.7291674614	-6.076879501	1.0
3	28.83100128	0	0	-0.03854420036	0.7276611924	-6.064242363	1.0
4	28.83100128	0	0	-0.03887049481	0.730723381	-6.089882374	1.0
[LeftHandIndex4]
1	23.92700005	0	0	0	0	0	1.0
2	23.92700005	0	0	0	0	0	1.0
3	23.92700005	0	0	0	0	0	1.0
4	23.92700005	0	0	0	0	0	1.0
[LeftHandMiddle1]
1	95.33399963	0	0	-1.450135827	-1.158213377	-38.19465256	1.0
2	95.33399963	0	0	-1.493606091	-1.162993193	-38.78087234	1.0
3	95.33399963	0	0	-1.502751231	-1.171608329	-38.90782547	1.0
4	95.33399963	0	0	-1.449626803	-1.195716262	-38.19319153	1.0
[LeftHandMiddle2]
1	36.98199844	0	0	-0.6999518275	3.023585796	-26.06287003	1.0
2	36.98199844	0	0	-0.7090294957	3.04212904	-26.23501205	1.0
3	36.98199844	0	0	-0.6916160583	3.007260799	-25.91004372	1.0
4	36.98199844	0	0	-0.6330683231	2.882936239	-24.76438713	1.0
[LeftHandMiddle3]
1	29.50900078	0	0	-0.06908680499	0.9730796814	-8.121958733	1.0
2	29.50900078	0	0	-0.06908036023	0.973046422	-8.121650696	1.0
3	29.50900078	0	0	-0.06854219735	0.9692746401	-8.089940071	1.0
4	29.50900078	0	0	-0.06714624912	0.9593743682	-8.006772995	1.0
[LeftHandMiddle4]
1	28.3390007	0	0	0	0	0	1.0
2	28.3390007	0	0	0	0	0	1.0
3	28.3390007	0	0	0	0	0	1.0
4	28.3390007	0	0	0	0	0	1.0
[LeftHandRing1]
1	91.04499817	-0.4390000105	-18.65100098	-1.647938013	2.559438229	-40.53917694	1.0
2	91.04499817	-0.4390000105	-18.65100098	-1.632648349	2.530644655	-40.34318161	1.0
3	91.04499817	-0.4390000105	-18.65100098	-1.607220769	2.491796017	-40.01509857	1.0
4	91.04499817	-0.4390000105	-18.65100098	-1.56727457	2.435701609	-39.4947052	1.0
[LeftHandRing2]
1	31.54000092	0	0	-0.8203183413	3.257838964	-28.25953674	1.0
2	31.54000092	0	0	-0.7662879229	3.155395031	-27.29349136	1.0
3	31.54000092	0	0	-0.7072150111	3.038344145	-26.20002365	1.0
4	31.54000092	0	0	-0.6469238997	2.913096666	-25.0409565	1.0
[LeftHandRing3]
1	29.37700081	0	0	-0.06817289442	0.9666703343	-8.068068504	1.0
2	29.37700081	0	0	-0.06769467145	0.9632753134	-8.03953743	1.0
3	29.37700081	0	0	-0.0671909526	0.9596986175	-8.009502411	1.0
4	29.37700081	0	0	-0.06671585143	0.9563260078	-7.981161118	1.0
[LeftHandRing4]
1	26.47500038	0	0	0	0	0	1.0
2	26.47500038	0	0	0	0	0	1.0
3	26.47500038	0	0	0	0	0	1.0
4	26.47500038	0	0	0	0	0	1.0
[LeftHandPinky1]
1	80.77799988	-4.887000084	-38.06099701	-2.722733974	4.949063301	-52.853302	1.0
2	80.77799988	-4.887000084	-38.06099701	-2.625827789	4.987746716	-51.82923508	1.0
3	80.77799988	-4.887000084	-38.06099701	-2.545550108	4.942469597	-50.97156143	1.0
4	80.77799988	-4.887000084	-38.06099701	-2.504406214	4.761767387	-50.52913284	1.0
[LeftHandPinky2]
1	36	0	0	0.8995583653	-1.86706686	-17.44864464	1.0
2	36	0	0	0.8318834305	-2.12866497	-15.51755333	1.0
3	36	0	0	0.7620053291	-2.368138075	-13.73400402	1.0
4	36	0	0	0.7082352638	-2.537499428	-12.46353436	1.0
[LeftHandPinky3]
1	21.14200211	0	0	-0.0335059762	0.6785443425	-5.65349865	1.0
2	21.14200211	0	0	-0.03402088955	0.6837431788	-5.696950436	1.0
3	21.14200211	0	0	-0.0345235616	0.6887555718	-5.738875389	1.0
4	21.14200211	0	0	-0.03492894024	0.6927827001	-5.772536278	1.0
[LeftHandPinky4]
1	19.75699997	0	0	0	0	0	1.0
2	19.75699997	0	0	0	0	0	1.0
3	19.75699997	0	0	0	0	0	1.0
4	19.75699997	0	0	0	0	0	1.0
[RightShoulder]
1	-45.70000076	109.4620056	-26.28000069	1.453759432	0.6445177794	29.43861008	1.0
2	-45.70000076	109.4620056	-26.28000069	1.413565636	0.6922667623	27.78676987	1.0
3	-45.70000076	109.4620056	-26.28000069	1.274726748	0.4720198214	25.94315147	1.0
4	-45.70000076	109.4620056	-26.28000069	1.064525723	0.0625551939	23.47994423	1.0
[RightArm]
1	-105.9280014	-5.248000145	-22.32099915	-28.39892769	23.68202019	30.28518677	1.0
2	-105.9280014	-5.248000145	-22.32099915	-22.87733269	23.26871681	23.9246769	1.0
3	-105.9280014	-5.248000145	-22.32099915	-22.85578346	22.73003769	18.37217522	1.0
4	-105.9280014	-5.248000145	-22.32099915	-28.08636856	22.71813202	14.13190079	1.0
[RightForeArm]
1	-278.414978	0	0	-1.491638523e-05	22.35844612	2.079305887e-05	1.0
2	-278.414978	0	0	6.733188457e-06	20.92186737	2.770309948e-06	1.0
3	-278.414978	0	0	-4.086763056e-06	20.59253693	5.330560271e-06	1.0
4	-278.414978	0	0	-9.43392206e-06	21.07205009	2.658626499e-06	1.0
[RightHand]
1	-283.2879944	0	0.0009999999311	-89.57320404	-7.53342247	-30.62276268	1.0
2	-283.2879944	0	0.0009999999311	-93.50323486	-17.51580429	-26.17890358	1.0
3	-283.2879944	0	0.0009999999311	-93.8963623	-22.73656082	-24.8538723	1.0
4	-283.2879944	0	0.0009999999311	-90.6934967	-22.9813118	-27.30699158	1.0
[RightHandPinky1]
1	-80.76699829	-4.885000229	-38.06000137	-5.3323493	-15.0235815	76.83585358	1.0
2	-80.76699829	-4.885000229	-38.06000137	-5.154569149	-15.12682343	75.33885193	1.0
3	-80.76699829	-4.885000229	-38.06000137	-4.97819376	-14.79487514	73.82418823	1.0
4	-80.76699829	-4.885000229	-38.06000137	-4.797532082	-13.71887016	72.23458862	1.0
[RightHandPinky2]
1	-36	0	0.0009999999311	-1.88167882	-4.750370979	43.21257019	1.0
2	-36	0	0.0009999999311	-1.858277917	-4.725420952	42.92930984	1.0
3	-36	0	0.0009999999311	-1.87354815	-4.742091656	43.11637497	1.0
4	-36	0	0.0009999999311	-1.954167724	-4.825910568	44.07944489	1.0
[RightHandPinky3]
1	-21.14200211	0	0	-0.03360449523	0.6827996969	-5.63401413	1.0
2	-21.14200211	0	0	-0.03088981286	0.65471524	-5.401529789	1.0
3	-21.14200211	0	0	-0.02931801416	0.6381753683	-5.264595985	1.0
4	-21.14200211	0	0	-0.02987736091	0.6440799832	-5.313425064	1.0
[RightHandPinky4]
1	-19.75699997	0	0	0	0	0	1.0
2	-19.75699997	0	0	0	0	0	1.0
3	-19.75699997	0	0	0	0	0	1.0
4	-19.75699997	0	0	0	0	0	1.0
[RightHandRing1]
1	-91.03599548	-0.4390000105	-18.65100098	-2.92094183	-8.140573502	54.66260529	1.0
2	-91.03599548	-0.4390000105	-18.65100098	-2.7398386	-8.447541237	52.81824112	1.0
3	-91.03599548	-0.4390000105	-18.65100098	-2.541384935	-8.446265221	50.73798752	1.0
4	-91.03599548	-0.4390000105	-18.65100098	-2.310158491	-7.882376671	48.20788956	1.0
[RightHandRing2]
1	-31.54000092	0	0	-0.4167901874	-2.370663881	19.93965149	1.0
2	-31.54000092	0	0	-0.29413414	-1.995772481	16.68555641	1.0
3	-31.54000092	0	0	-0.2199581116	-1.735763431	14.4549017	1.0
4	-31.54000092	0	0	-0.2016028315	-1.664003134	13.84450626	1.0
[RightHandRing3]
1	-29.37700081	0	0	2.082844734	-0.2407818288	1.983843684	1.0
2	-29.37700081	0	0	1.418755889	-0.07758443058	0.6415106654	1.0
3	-29.37700081	0	0	0.9469587803	0.04335027933	-0.3560186625	1.0
4	-29.37700081	0	0	0.6246215105	0.1145466194	-0.9437035918	1.0
[RightHandRing4]
1	-26.47500038	0	0	0	0	0	1.0
2	-26.47500038	0	0	0	0	0	1.0
3	-26.47500038	0	0	0	0	0	1.0
4	-26.47500038	0	0	0	0	0	1.0
[RightHandMiddle1]
1	-95.32500458	0	0	-1.110676169	-0.9343152046	32.95325851	1.0
2	-95.32500458	0	0	-0.9313191175	-1.475523472	30.07036972	1.0
3	-95.32500458	0	0	-0.6785920858	-1.62765491	25.57155228	1.0
4	-95.32500458	0	0	-0.3948584199	-1.13375771	19.24918556	1.0
[RightHandMiddle2]
1	-36.98199844	0	0	-0.4190128446	-2.376798868	19.99357224	1.0
2	-36.98199844	0	0	-0.1823991686	-1.554457903	12.93275928	1.0
3	-36.98199844	0	0	-0.06367179751	-0.9386586547	7.753056049	1.0
4	-36.98199844	0	0	-0.02920758724	-0.6627655625	5.465393066	1.0
[RightHandMiddle3]
1	-29.50900078	0	0	1.763150811	-0.6726956964	5.533510208	1.0
2	-29.50900078	0	0	0.9401712418	-0.2804567516	2.302613258	1.0
3	-29.50900078	0	0	0.3554708958	0.01278364472	-0.1188637465	1.0
4	-29.50900078	0	0	0.1203854308	0.1874818653	-1.562057972	1.0
[RightHandMiddle4]
1	-28.3390007	0	0.0009999999311	0	0	0	1.0
2	-28.3390007	0	0.0009999999311	0	0	0	1.0
3	-28.3390007	0	0.0009999999311	0	0	0	1.0
4	-28.3390007	0	0.0009999999311	0	0	0	1.0
[RightHandIndex1]
1	-91.08300018	-5.167999744	22.60099792	-0.1345442981	7.060440063	14.22272396	1.0
2	-91.08300018	-5.167999744	22.60099792	-0.04336216673	6.177361965	9.646289825	1.0
3	-91.08300018	-5.167999744	22.60099792	0.03251766041	5.736095428	2.899056673	1.0
4	-91.08300018	-5.167999744	22.60099792	-0.04216249287	6.065717697	-6.83061409	1.0
[RightHandIndex2]
1	-36.76399994	0	0	-0.561661005	-2.736847401	23.19008446	1.0
2	-36.76399994	0	0	-0.1675225794	-1.437755585	11.97490883	1.0
3	-36.76399994	0	0	-0.0175152719	-0.5197659135	4.270746708	1.0
4	-36.76399994	0	0	-0.0002127272746	-0.2470709532	2.032658339	1.0
[RightHandIndex3]
1	-28.83100128	0	0	-0.03396111354	-0.6865196228	5.664690495	1.0
2	-28.83100128	0	0	-0.006392935757	-0.2626876235	2.165368557	1.0
3	-28.83100128	0	0	-0.0001073563035	0.05815919116	-0.4794104099	1.0
4	-28.83100128	0	0	-0.005008507054	0.2743071318	-2.260212183	1.0
[RightHandIndex4]
1	-23.92700005	0	0	0	0	0	1.0
2	-23.92700005	0	0	0	0	0	1.0
3	-23.92700005	0	0	0	0	0	1.0
4	-23.92700005	0	0	0	0	0	1.0
[RightHandThumb1]
1	-24.64799881	-15.72700024	26.82600021	3.180154324	-9.709976196	-11.80180264	1.0
2	-24.64799881	-15.72700024	26.82600021	-1.550577164	-9.89451313	-13.56812096	1.0
3	-24.64799881	-15.72700024	26.82600021	-5.874945164	-10.00585079	-15.33684158	1.0
4	-24.64799881	-15.72700024	26.82600021	-8.735040665	-9.950359344	-17.71128464	1.0
[RightHandThumb2]
1	-32.29800034	-18.64699936	18.64699936	2.057866096	0.3467246294	1.644228816	1.0
2	-32.29800034	-18.64699936	18.64699936	2.058665276	0.3439433873	1.654683828	1.0
3	-32.29800034	-18.64699936	18.64699936	2.059355259	0.3385903835	1.673897743	1.0
4	-32.29800034	-18.64699936	18.64699936	2.059299707	0.3353884518	1.684852719	1.0
[RightHandThumb3]
1	-26.52600098	-15.31399918	15.31399918	-3.710656881	3.921910286	-2.941357374	1.0
2	-26.52600098	-15.31399918	15.31399918	-3.549694777	3.625737667	-2.977715492	1.0
3	-26.52600098	-15.31399918	15.31399918	-3.467633724	3.431149006	-3.046330452	1.0
4	-26.52600098	-15.31399918	15.31399918	-3.517210245	3.436718702	-3.147236824	1.0
[RightHandThumb4]
1	-19.54599953	-11.28499985	11.28499985	0	0	0	1.0
2	-19.54599953	-11.28499985	11.28499985	0	0	0	1.0
3	-19.54599953	-11.28499985	11.28499985	0	0	0	1.0
4	-19.54599953	-11.28499985	11.28499985	0	0	0	1.0
[LeftUpLeg]
1	82.07800293	-67.51699829	-15.99599934	-22.92357635	20.6234417	18.94446945	1.0
2	82.07800293	-67.51699829	-15.99599934	-23.10706329	19.74041557	18.61632156	1.0
3	82.07800293	-67.51699829	-15.99599934	-23.15789032	20.16588783	18.40303612	1.0
4	82.07800293	-67.51699829	-15.99599934	-22.86352921	20.77134705	18.62023163	1.0
[LeftLeg]
1	0	-443.7049866	2.845999956	45.10876465	4.308335781	-5.095675945	1.0
2	0	-443.7049866	2.845999956	44.89421463	2.495631695	-4.598549366	1.0
3	0	-443.7049866	2.845999956	44.98650742	0.9960079193	-3.738764048	1.0
4	0	-443.7049866	2.845999956	45.59796906	0.3381920457	-2.658729553	1.0
[LeftFoot]
1	0	-444.2789917	-29.8219986	-15.31816292	-4.73359251	-0.9605678916	1.0
2	0	-444.2789917	-29.8219986	-14.2507782	-3.60428977	-0.7962157726	1.0
3	0	-444.2789917	-29.8219986	-12.29972172	-2.657664061	-0.3911959529	1.0
4	0	-444.2789917	-29.8219986	-11.78757191	-0.9019950628	-0.8750362396	1.0
[LeftToeBase]
1	0	-87.28699493	107.1060028	-3.550356865	-6.316759936e-06	-4.321080269e-06	1.0
2	0	-87.28699493	107.1060028	-3.610795498	-1.500437702e-05	-4.955226814e-06	1.0
3	0	-87.28699493	107.1060028	-3.952450514	-7.162582278e-06	-1.922685897e-06	1.0
4	0	-87.28699493	107.1060028	-4.164690971	-8.087390029e-07	2.278607553e-06	1.0
[RightUpLeg]
1	-82.07800293	-67.51699829	-15.99599934	-12.03243256	-7.911173344	-0.1331752241	1.0
2	-82.07800293	-67.51699829	-15.99599934	-12.26613617	-7.469992161	0.625398159	1.0
3	-82.07800293	-67.51699829	-15.99599934	-12.7503891	-6.476351738	1.178585768	1.0
4	-82.07800293	-67.51699829	-15.99599934	-13.35809231	-5.263747692	1.595002651	1.0
[RightLeg]
1	0	-443.7049866	2.861999989	39.19360733	-8.965209007	-4.445292473	1.0
2	0	-443.7049866	2.861999989	39.87604523	-8.310319901	-5.193834782	1.0
3	0	-443.7049866	2.861999989	40.64318085	-8.003329277	-5.448584557	1.0
4	0	-443.7049866	2.861999989	41.26306534	-7.928852558	-5.626845837	1.0
[RightFoot]
1	0	-444.2770081	-29.83799934	-22.36166954	-11.83269405	20.79949951	1.0
2	0	-444.2770081	-29.83799934	-21.84694862	-10.94741631	22.56073952	1.0
3	0	-444.2770081	-29.83799934	-21.46167564	-9.848300934	23.7241497	1.0
4	0	-444.2770081	-29.83799934	-20.68670654	-8.166657448	24.10799789	1.0
[RightToeBase]
1	0	-87.28699493	107.1060028	11.1604929	-1.263380273e-05	-2.053193839e-06	1.0
2	0	-87.28699493	107.1060028	9.276039124	0.3491107821	-1.921855927	1.0
3	0	-87.28699493	107.1060028	7.982885838	0.6499295235	-3.629386425	1.0
4	0	-87.28699493	107.1060028	7.118515491	0.8345728517	-4.774244308	1.0
[EndOfFile]
